<?xml version="1.0" encoding="UTF-8" standalone="no"?><!DOCTYPE svg PUBLIC "-//W3C//DTD SVG 1.1//EN" "http://www.w3.org/Graphics/SVG/1.1/DTD/svg11.dtd"><svg width="100%" height="100%" viewBox="0 0 768 768" version="1.1" xmlns="http://www.w3.org/2000/svg" xmlns:xlink="http://www.w3.org/1999/xlink" xml:space="preserve" xmlns:serif="http://www.serif.com/" style="fill-rule:evenodd;clip-rule:evenodd;stroke-linejoin:round;stroke-miterlimit:2;"><g><g id="Layer1"><path d="M564.424,168.159c-48.891,-40.731 -111.81,-65.253 -180.424,-65.253c-155.504,0 -281.754,125.954 -281.754,281.094c-0,70.982 26.429,135.854 69.996,185.348c7.602,0.466 15.265,0.703 22.983,0.703c204.488,-0 370.506,-166.047 370.506,-370.57c0,-10.549 -0.441,-20.995 -1.307,-31.322Z" style="fill:#00bcd1;"/><path d="M172.242,569.348c51.655,58.682 127.402,95.746 211.758,95.746c155.504,-0 281.754,-125.954 281.754,-281.094c0,-86.686 -39.417,-164.26 -101.33,-215.841c0.866,10.327 1.307,20.773 1.307,31.322c0,204.523 -166.018,370.57 -370.506,370.57c-7.718,-0 -15.381,-0.237 -22.983,-0.703Z" style="fill:#1998c4;"/><g><clipPath id="_clip1"><path d="M564.424,168.159c61.913,51.581 101.33,129.155 101.33,215.841c0,155.14 -126.25,281.094 -281.754,281.094c-84.356,-0 -160.103,-37.064 -211.758,-95.746c-43.567,-49.494 -69.996,-114.366 -69.996,-185.348c-0,-155.14 126.25,-281.094 281.754,-281.094c68.614,0 131.533,24.522 180.424,65.253Z"/></clipPath><g clip-path="url(#_clip1)"><path d="M278.342,298.157l108.042,47.184l149.533,-110.496l-117.5,123.781l115.699,49.374l57.344,-237.001l-313.118,127.158Z" style="fill:#4a5653;fill-rule:nonzero;"/><path d="M425.252,425.286l-1.333,-53.756l39.911,17.355" style="fill:#4a5653;fill-rule:nonzero;"/></g></g><g><path d="M275.525,281.172l108.041,47.184l149.533,-110.495l-117.499,123.78l115.699,49.375l57.344,-237.002l-313.118,127.158Z" style="fill:#ffe645;fill-rule:nonzero;"/><path d="M422.434,408.301l-1.332,-53.756l39.91,17.356" style="fill:#ffe645;fill-rule:nonzero;"/></g></g></g></svg>