<?xml version="1.0" encoding="UTF-8" standalone="no"?><!DOCTYPE svg PUBLIC "-//W3C//DTD SVG 1.1//EN" "http://www.w3.org/Graphics/SVG/1.1/DTD/svg11.dtd"><svg width="100%" height="100%" viewBox="0 0 243 57" version="1.1" xmlns="http://www.w3.org/2000/svg" xmlns:xlink="http://www.w3.org/1999/xlink" xml:space="preserve" xmlns:serif="http://www.serif.com/" style="fill-rule:evenodd;clip-rule:evenodd;stroke-linejoin:round;stroke-miterlimit:2;"><rect id="Artboard2" x="0" y="0" width="243" height="57" style="fill:none;"/><clipPath id="_clip1"><rect x="0" y="0" width="243" height="57"/></clipPath><g clip-path="url(#_clip1)"><g id="Ebene_1"><g id="g4881"><path id="path4883" d="M242.87,54.195c-0,1.55 -1.243,2.805 -2.779,2.805l-52.892,0c-1.535,0 -2.779,-1.255 -2.779,-2.805l-0,-51.392c-0,-1.548 1.244,-2.803 2.779,-2.803l52.892,0c1.536,0 2.779,1.255 2.779,2.803l-0,51.392Z" style="fill:#bac6cf;fill-rule:nonzero;"/><path id="path4885" d="M240.344,1.451l-0,43.795c-0,1.535 -2.779,2.779 -2.779,2.779c-9.352,3.363 -23.688,8.326 -47.652,0c-2.425,-0.842 -2.78,-1.244 -2.78,-2.779l-0,-43.795" style="fill:#fff;fill-rule:nonzero;"/><path id="path4891" d="M181.45,54.196c-0,1.547 -1.244,2.804 -2.779,2.804l-52.892,0c-1.535,0 -2.779,-1.257 -2.779,-2.804l-0,-51.392c-0,-1.547 1.244,-2.804 2.779,-2.804l52.892,0c1.535,0 2.779,1.257 2.779,2.804l-0,51.392Z" style="fill:#bac6cf;fill-rule:nonzero;"/><path id="path4889" d="M178.831,1.5l-0.001,43.795c0,1.535 -2.779,2.779 -2.779,2.779c-9.353,3.363 -23.688,8.326 -47.653,0c-2.424,-0.844 -2.779,-1.244 -2.779,-2.779l0,-43.795" style="fill:#fff;fill-rule:nonzero;"/><path id="path48911" serif:id="path4891" d="M119.92,54.196c-0,1.547 -1.244,2.804 -2.779,2.804l-52.892,0c-1.535,0 -2.779,-1.257 -2.779,-2.804l-0,-51.392c-0,-1.547 1.244,-2.804 2.779,-2.804l52.892,0c1.535,0 2.779,1.257 2.779,2.804l-0,51.392Z" style="fill:#bac6cf;fill-rule:nonzero;"/><path id="path4893" d="M117.394,1.5l-0,43.795c-0,1.535 -2.779,2.777 -2.779,2.777c-9.352,3.365 -23.689,8.328 -47.653,0c-2.425,-0.842 -2.779,-1.242 -2.779,-2.777l-0,-43.795" style="fill:#fff;fill-rule:nonzero;"/><path id="path4895" d="M58.452,54.2c-0,1.546 -1.244,2.8 -2.779,2.8l-52.893,0c-1.536,0 -2.78,-1.254 -2.78,-2.8l-0,-51.353c-0,-1.546 1.244,-2.8 2.78,-2.8l52.893,0c1.535,0 2.779,1.254 2.779,2.8l-0,51.353Z" style="fill:#bac6cf;fill-rule:nonzero;"/><path id="path4897" d="M55.925,1.5l-0,43.793c-0,1.535 -2.779,2.779 -2.779,2.779c-9.352,3.363 -23.688,8.326 -47.653,0c-2.424,-0.842 -2.779,-1.244 -2.779,-2.779l-0,-43.793" style="fill:#fff;fill-rule:nonzero;"/></g><path id="path3837" d="M18.449,26.475l0,-14.674l6.184,0.024c6.794,0.027 6.641,0.018 8.413,0.463c4.227,1.062 7.876,4.029 9.701,7.889c1.92,4.063 1.905,8.734 -0.043,12.675c-1.16,2.348 -2.892,4.309 -5.133,5.812c-1.411,0.946 -3.557,1.827 -5.298,2.174c-1.433,0.286 -2.092,0.311 -8.115,0.312l-5.709,-0l0,-14.674l0,-0.001Zm11.554,8.048c1.752,-0.385 3.021,-1.033 4.07,-2.079c1.172,-1.169 1.822,-2.539 2.107,-4.441c0.145,-0.967 0.091,-2.741 -0.112,-3.691c-0.625,-2.919 -2.629,-5.008 -5.525,-5.761c-0.93,-0.241 -1.589,-0.306 -3.13,-0.306l-1.374,0l-0,16.484l1.677,-0.036c1.319,-0.028 1.807,-0.064 2.287,-0.17l0,0Z" style="fill:#125a95;fill-rule:nonzero;"/><path id="path3839" d="M77.302,39.981c-0.017,-0.047 -1.908,-6.382 -4.202,-14.078c-2.294,-7.697 -4.184,-14.032 -4.2,-14.078c-0.024,-0.067 0.761,-0.085 3.78,-0.084l3.809,-0l2.463,9.165c1.354,5.04 2.475,9.178 2.491,9.194c0.016,0.016 0.056,0.001 0.088,-0.034c0.046,-0.049 3.401,-10.333 5.675,-17.394l0.3,-0.932l2.912,0c1.601,0 2.911,0.011 2.911,0.025c-0,0.072 5.556,18.293 5.587,18.325c0.021,0.02 0.057,0.017 0.08,-0.006c0.035,-0.035 1.298,-4.341 5.278,-17.988l0.104,-0.356l3.793,-0c2.086,-0 3.793,0.017 3.793,0.038c0,0.021 -1.999,6.296 -4.442,13.943c-2.443,7.647 -4.473,14.003 -4.511,14.124l-0.07,0.22l-7.506,0l-0.137,-0.457c-1.843,-6.138 -4.808,-15.889 -4.841,-15.922c-0.024,-0.025 -0.07,-0.016 -0.1,0.019c-0.031,0.035 -1.279,3.677 -2.773,8.093c-1.494,4.417 -2.737,8.084 -2.762,8.149c-0.043,0.111 -0.286,0.118 -3.768,0.118c-2.916,0 -3.728,-0.018 -3.752,-0.084l-0,-0Z" style="fill:#125a95;fill-rule:nonzero;"/><path id="path3841" d="M140.967,26.417l0,-14.677l5.96,0c6.345,0 6.67,0.014 8.164,0.345c0.981,0.217 2.373,0.709 3.326,1.177c7.128,3.497 10.176,11.859 6.954,19.08c-0.68,1.522 -1.598,2.866 -2.819,4.123c-2.431,2.504 -5.348,3.956 -9.014,4.487c-0.364,0.052 -2.52,0.089 -6.557,0.11l-6.014,0.032l0,-14.677l0,0Zm11.215,8.064c4.481,-0.813 6.856,-4.057 6.529,-8.916c-0.086,-1.28 -0.352,-2.301 -0.862,-3.321c-0.365,-0.73 -0.624,-1.091 -1.247,-1.739c-0.864,-0.901 -1.771,-1.461 -3.053,-1.885c-1.101,-0.365 -1.832,-0.462 -3.535,-0.469l-1.491,-0.007l-0.017,8.165c-0.01,4.491 -0.001,8.208 0.018,8.259c0.05,0.133 2.807,0.067 3.658,-0.088l0,0.001Z" style="fill:#125a95;fill-rule:nonzero;"/><path id="path3843" d="M210.358,41.073c-2.722,-0.28 -5.311,-1.19 -7.729,-2.72l-0.648,-0.409l1.518,-2.853c0.835,-1.569 1.54,-2.891 1.566,-2.938c0.033,-0.06 0.23,0.061 0.654,0.402c2.209,1.774 4.576,2.62 6.586,2.355c1.307,-0.172 2.26,-0.762 2.708,-1.675c0.17,-0.345 0.19,-0.459 0.19,-1.064c0,-0.574 -0.024,-0.727 -0.159,-1.001c-0.311,-0.631 -1.107,-1.244 -2.189,-1.684c-0.268,-0.109 -1.206,-0.413 -2.085,-0.675c-2.721,-0.812 -3.821,-1.246 -4.833,-1.911c-0.717,-0.471 -1.116,-0.829 -1.512,-1.355c-0.826,-1.099 -1.215,-2.356 -1.294,-4.182c-0.283,-6.514 4.579,-10.735 11.435,-9.928c2.005,0.236 3.978,0.759 5.719,1.515c0.476,0.206 1.39,0.678 1.39,0.717c-0,0.044 -2.86,5.595 -2.883,5.595c-0.012,-0 -0.252,-0.164 -0.531,-0.365c-1.236,-0.886 -2.959,-1.468 -4.333,-1.464c-0.912,0.003 -2.025,0.427 -2.566,0.978c-0.452,0.458 -0.617,0.842 -0.617,1.427c-0,0.618 0.18,1.001 0.696,1.479c0.521,0.482 1.252,0.827 2.746,1.298c4.326,1.363 5.378,1.863 6.713,3.186c1.538,1.525 2.144,3.459 1.931,6.167c-0.314,4.009 -1.901,6.431 -5.235,7.991c-2.053,0.96 -4.725,1.371 -7.238,1.114Z" style="fill:#125a95;fill-rule:nonzero;"/></g></g></svg>