<?xml version="1.0" encoding="UTF-8" standalone="no"?><!DOCTYPE svg PUBLIC "-//W3C//DTD SVG 1.1//EN" "http://www.w3.org/Graphics/SVG/1.1/DTD/svg11.dtd"><svg width="100%" height="100%" viewBox="0 0 300 323" version="1.1" xmlns="http://www.w3.org/2000/svg" xmlns:xlink="http://www.w3.org/1999/xlink" xml:space="preserve" xmlns:serif="http://www.serif.com/" style="fill-rule:evenodd;clip-rule:evenodd;stroke-linejoin:round;stroke-miterlimit:2;"><g><path d="M239.437,197.321c-23.083,5.054 -40.986,24.123 -44.433,47.881c-6.046,3.159 -12.466,5.701 -19.176,7.544c-0.172,-0.121 -0.348,-0.254 -0.516,-0.375c-3.316,-2.348 -5.085,-3.18 -7.453,-4.5c0.032,-0.996 0.063,-1.754 0.094,-2.766c5.281,-1.683 11.223,-3.964 16.781,-9.421c6.336,-6.223 10.004,-17.032 8.578,-27.375c-1.277,-9.254 -6.285,-16.887 -11.812,-22.125c-3.75,-3.555 -7.746,-6.098 -11.672,-8.391c0.184,-6.66 0.383,-13.02 0.563,-19.781c7.047,-3.399 14.515,-7.5 20.859,-14.532c6.844,-7.585 11.227,-19.601 9.281,-31.875c-1.605,-10.132 -8.379,-18.023 -15.234,-22.64c-4.184,-2.817 -8.512,-4.692 -12.844,-6.328c0.051,-1.825 0.098,-5.012 0.141,-6.61c5.945,1.387 13.695,2.621 21.937,2.672c3.11,0.02 6.157,-0.004 9.563,-0.703c26.066,17.465 43.218,47.172 43.218,80.906c0,13.646 -2.807,26.634 -7.875,38.419Zm-153.89,-111.356c4.051,7.344 10.062,12.223 16.172,15.937c8.851,5.383 18.16,8.536 26.812,11.203c0.129,5.575 0.27,11.36 0.422,17.579c-5.223,3.07 -10.402,6.531 -15.094,11.296c-7.183,7.297 -12.976,19.864 -9.75,32.391c2.668,10.367 9.403,18.285 16.266,23.25c3.566,2.582 7.145,4.547 10.594,6.188c0.152,5.48 0.312,10.91 0.469,16.265c-1.418,1.043 -2.872,1.864 -4.219,3.281c-4.625,4.868 -7.75,12.309 -8.063,19.829c-0.117,2.867 0.211,5.671 0.891,8.343c-39.109,-12.629 -67.406,-49.312 -67.406,-92.625c-0,-29.043 12.73,-55.101 32.906,-72.937Z" style="fill:#008bb7;"/><path d="M197.491,29.483c0.88,0.361 -2.268,-1.138 -4.929,-2.346c-1.332,-0.606 -2.777,-1.235 -4.453,-1.828c-0.117,-0.043 -0.261,-0.094 -0.375,-0.141c0.407,-1.27 0.801,-2.418 1.266,-4.219c0.316,-1.222 0.711,-2.699 0.75,-5.203c0.008,-0.363 0.023,-0.789 0,-1.219c12.266,3.379 23.891,8.297 34.688,14.485c0.199,0.113 0.41,0.215 0.609,0.328c3.449,1.996 6.808,4.164 10.078,6.422c0.965,0.668 1.91,1.328 2.859,2.015c0.184,0.133 0.379,0.243 0.563,0.375c1.094,0.801 2.164,1.61 3.234,2.438c1.141,0.883 2.262,1.805 3.375,2.719c0.145,0.121 0.278,0.253 0.422,0.375c0.93,0.769 1.852,1.55 2.766,2.343c1.054,0.918 2.113,1.821 3.14,2.766c0.172,0.156 0.344,0.312 0.516,0.469c0.855,0.793 1.695,1.625 2.531,2.437c0.766,0.746 1.547,1.489 2.297,2.25c1.207,1.223 2.399,2.489 3.563,3.75c0.343,0.375 0.691,0.746 1.031,1.125c0.59,0.656 1.156,1.305 1.734,1.969c0.203,0.234 0.406,0.469 0.61,0.703c1.527,1.777 3.007,3.637 4.453,5.484c0.09,0.114 0.191,0.215 0.281,0.329c0.484,0.625 0.977,1.242 1.453,1.875c0.363,0.484 0.719,0.964 1.078,1.453c0.309,0.422 0.633,0.843 0.938,1.265c0.511,0.711 1.004,1.438 1.5,2.157l-29.016,16.781c-0.723,-0.992 -1.449,-1.981 -2.203,-2.953c-0.75,-0.965 -1.52,-1.918 -2.297,-2.86c-2.348,-2.839 -4.805,-5.55 -7.406,-8.156c-2.582,-2.586 -5.293,-5.07 -8.109,-7.406c-1.356,-1.125 -2.766,-2.215 -4.172,-3.281c1.41,-3.516 1.855,-7.622 1.218,-10.829c-1.672,-8.449 -6.586,-14.019 -11.062,-17.906c-4.474,-3.881 -8.858,-6.29 -12.931,-7.966Zm-0,-0c-0.002,-0.001 -0.005,-0.002 -0.007,-0.003c0.002,0.001 0.005,0.002 0.007,0.003Zm-1.636,237.02c2.588,11.318 8.499,21.366 16.642,29.048c-1.291,0.594 -2.592,1.169 -3.903,1.726c-1,0.426 -1.992,0.864 -3,1.266c-0.926,0.371 -1.875,0.727 -2.813,1.078c-0.867,0.328 -1.75,0.629 -2.625,0.938c-1.426,0.507 -2.867,1.035 -4.312,1.5c-0.032,0.011 -0.059,0.035 -0.094,0.046c-1.414,0.454 -2.836,0.856 -4.266,1.266c-1.464,0.422 -2.922,0.797 -4.406,1.172c-1.48,0.379 -2.953,0.746 -4.453,1.078c-2.707,0.602 -5.445,1.141 -8.203,1.594c-0.297,0.051 -0.59,0.094 -0.891,0.14c-0.297,0.047 -0.593,0.098 -0.89,0.141c-0.575,0.086 -1.157,0.156 -1.735,0.234c0.227,-4.542 0.403,-8.675 0.563,-12.187c6.582,-3.148 13.429,-8.637 15.843,-17.906c0.715,-2.746 0.704,-5.469 0.282,-7.969c0.015,-0.004 0.035,0.004 0.047,0c0.16,-0.055 0.308,-0.133 0.468,-0.188c0.789,-0.273 1.61,-0.554 2.391,-0.843c0.301,-0.11 0.594,-0.215 0.891,-0.328c0.644,-0.247 1.281,-0.493 1.921,-0.75c0.422,-0.168 0.848,-0.34 1.266,-0.516c0.429,-0.177 0.852,-0.358 1.277,-0.54Zm94.781,-55.085c-8.181,-7.651 -18.59,-12.927 -30.134,-14.73c3.991,-11.767 6.17,-24.394 6.17,-37.504c0,-2.664 -0.152,-5.301 -0.328,-7.922l0.047,0c-0.055,-0.813 -0.118,-1.629 -0.188,-2.438c-0.015,-0.172 -0.031,-0.344 -0.047,-0.515c-0.008,-0.063 0.004,-0.125 0,-0.188c-0.156,-1.633 -0.34,-3.262 -0.562,-4.875c-0.012,-0.094 -0.035,-0.187 -0.047,-0.281c-0.172,-1.219 -0.356,-2.449 -0.563,-3.656c-0.035,-0.204 -0.058,-0.407 -0.093,-0.61c-0.141,-0.801 -0.309,-1.594 -0.469,-2.39c-0.059,-0.297 -0.125,-0.594 -0.188,-0.891c-0.203,-0.977 -0.429,-1.941 -0.656,-2.906c-0.074,-0.313 -0.16,-0.625 -0.234,-0.938c-0.34,-1.402 -0.688,-2.789 -1.078,-4.172c-0.321,-1.132 -0.676,-2.254 -1.032,-3.375c-0.382,-1.211 -0.75,-2.414 -1.172,-3.609c-0.011,-0.031 -0.035,-0.059 -0.046,-0.094l29.25,-16.875c0.144,0.356 0.281,0.723 0.422,1.078c0.589,1.512 1.144,3.016 1.687,4.547c0.598,1.688 1.195,3.395 1.734,5.11c0.067,0.218 0.121,0.441 0.188,0.656c0.598,1.933 1.168,3.894 1.687,5.859c0.008,0.035 0.039,0.063 0.047,0.094c0.512,1.934 0.973,3.895 1.407,5.859c0.441,1.996 0.808,3.973 1.171,6c1.086,6.078 1.825,12.305 2.157,18.61c0.136,2.629 0.234,5.261 0.234,7.922c0,18.356 -3.317,35.97 -9.364,52.234Zm-190.23,-193.75c0.703,1.406 1.524,3.098 2.391,5.297c1.156,2.937 2.351,6.531 3.375,10.547c-3.395,1.347 -6.582,2.992 -9.422,5.203c-6.918,5.387 -11.02,12.902 -13.359,20.015c-0.618,1.875 -1.063,3.786 -1.36,5.719c-2.519,1.817 -4.996,3.719 -7.359,5.719c-1.422,1.203 -2.809,2.434 -4.172,3.703l-0.047,0.047c-1.383,1.289 -2.715,2.629 -4.031,3.984c-3.934,4.043 -7.602,8.36 -10.922,12.938l-28.969,-16.781c0.496,-0.719 0.992,-1.446 1.5,-2.157c0.301,-0.418 0.586,-0.847 0.891,-1.265c0.176,-0.242 0.383,-0.461 0.562,-0.703c0.434,-0.582 0.871,-1.161 1.313,-1.735c1.113,-1.453 2.211,-2.902 3.375,-4.312c1.246,-1.512 2.492,-2.989 3.797,-4.453c0.316,-0.356 0.664,-0.68 0.984,-1.032c1.035,-1.14 2.117,-2.269 3.188,-3.375c0.101,-0.101 0.179,-0.222 0.281,-0.328c0.238,-0.246 0.461,-0.504 0.703,-0.75c0.52,-0.523 1.066,-1.027 1.594,-1.547c0.41,-0.402 0.804,-0.82 1.219,-1.218c0.812,-0.782 1.652,-1.532 2.484,-2.297c1.187,-1.094 2.387,-2.18 3.609,-3.235c0.887,-0.761 1.77,-1.507 2.672,-2.25c1.078,-0.886 2.18,-1.769 3.281,-2.625c0.95,-0.738 1.891,-1.488 2.86,-2.203c0.152,-0.113 0.316,-0.215 0.468,-0.328c0.758,-0.555 1.532,-1.098 2.297,-1.641c0.094,-0.066 0.188,-0.121 0.282,-0.187c0.441,-0.309 0.867,-0.633 1.312,-0.938c0.391,-0.265 0.781,-0.531 1.172,-0.796c2.793,-1.875 5.656,-3.653 8.578,-5.344c0.141,-0.082 0.281,-0.152 0.422,-0.235c7.918,-4.55 16.297,-8.367 25.031,-11.437Zm-89.672,85.781l29.25,16.875c-0.019,0.063 -0.027,0.129 -0.046,0.188c-0.333,0.937 -0.68,1.863 -0.985,2.812c-0.324,1.012 -0.641,2.028 -0.937,3.047c-0.102,0.344 -0.184,0.688 -0.282,1.031c-0.246,0.871 -0.476,1.746 -0.703,2.625c-0.488,1.891 -0.918,3.793 -1.312,5.719c-0.215,1.047 -0.426,2.086 -0.61,3.141c-0.187,1.066 -0.359,2.16 -0.515,3.234c-0.133,0.902 -0.262,1.813 -0.375,2.719c-0.02,0.172 -0.028,0.344 -0.047,0.515c-0.539,4.543 -0.844,9.145 -0.844,13.829c0,13.632 2.356,26.742 6.656,38.906l-29.25,16.875c-6.914,-17.238 -10.734,-36.082 -10.734,-55.781c0,-4.661 0.191,-9.274 0.609,-13.829l0.047,0c0.336,-3.671 0.809,-7.285 1.406,-10.875c0.004,-0.031 -0.003,-0.062 0,-0.093c0.293,-1.766 0.629,-3.555 0.985,-5.297c0.34,-1.66 0.687,-3.281 1.078,-4.922c0.027,-0.109 0.066,-0.219 0.094,-0.328c0.789,-3.258 1.676,-6.485 2.672,-9.656c0.074,-0.239 0.156,-0.465 0.234,-0.704c0.543,-1.699 1.133,-3.39 1.734,-5.062c0.082,-0.234 0.149,-0.469 0.235,-0.703c0.523,-1.434 1.074,-2.852 1.64,-4.266Zm44.766,124.172c12.727,17.543 30.227,31.379 50.578,39.656c1.074,0.438 2.145,0.86 3.234,1.266c1.102,0.41 2.211,0.793 3.329,1.172c1.101,0.371 2.211,0.738 3.328,1.078c0.824,0.25 1.652,0.516 2.484,0.75c0.297,0.082 0.594,0.152 0.891,0.234c0.679,0.184 1.375,0.34 2.062,0.516l-17.25,9.187l17.813,8.485c-0.086,3.957 -0.235,9.715 0.047,16.64c-0.063,-0.011 -0.125,-0.035 -0.188,-0.046c-1.484,-0.282 -2.984,-0.61 -4.453,-0.938c-3,-0.664 -5.93,-1.406 -8.859,-2.25c-33.684,-9.683 -62.528,-30.859 -81.985,-59.016l28.969,-16.734Z" style="fill:#0073ae;"/><path d="M132.281,0c-0.539,0 -0.73,0.293 -0.515,0.984c0.507,1.621 7.058,26.043 9.281,48.141c-15.723,1.313 -32.863,5.078 -36.422,15.891c-7.734,23.504 17.191,30.461 38.672,36.984c0.242,10.879 0.543,23.438 0.891,37.266c-14.692,7.722 -29.227,17.074 -25.547,31.359c3.441,13.359 15.617,18.531 27.047,23.203c0.332,11.891 0.636,23.465 0.984,34.734c-6.535,2.403 -12.145,6.235 -12.516,15.235c-0.414,9.965 7.266,14.199 13.594,17.859c0.223,6.231 0.445,11.735 0.656,16.922c-7.91,3.613 -19.265,4.031 -19.265,4.031c-0,0 10.132,0.977 19.406,-0.984c0.035,0.883 0.058,2.066 0.094,2.906c1.242,-0.847 2.328,-1.793 3.093,-2.906c0.008,-0.246 0.039,-0.594 0.047,-0.844c5.422,-1.652 10.067,-4.535 11.391,-9.609c1.703,-6.535 -2.641,-10.098 -7.875,-13.406c-0.106,3.207 -0.18,6.48 -0.281,9.468c0.761,1.211 1.05,2.543 0.656,4.172c-0.504,2.067 -1.875,3.778 -3.75,5.156c0.375,-10.253 0.766,-22.429 1.172,-35.765c-2.11,0.555 -4.11,1.051 -5.953,1.641c0.117,3.621 0.211,6.812 0.328,10.265c-3.434,-2.637 -6.094,-5.801 -6.094,-10.5c0,-13.027 40.832,-4.629 37.078,-31.828c-1.484,-10.746 -10.957,-17.223 -21.047,-22.453c-0.097,3.703 -0.179,7.34 -0.281,11.016c6.621,3.589 11.316,8.203 11.063,16.265c-0.227,7.195 -7.188,9.137 -14.719,11.25c0.683,-23.234 1.371,-47.101 2.015,-71.625c-3.683,1.645 -7.363,3.199 -10.781,4.781c0.192,7.344 0.406,14.875 0.609,22.36c-9.203,-4.61 -16.207,-9.192 -14.156,-16.594c5.004,-18.059 59.817,-18.277 54.563,-51.422c-1.707,-10.754 -13.157,-16.027 -25.828,-19.828c-0.114,4.441 -0.2,8.574 -0.329,13.547c6.825,3.055 11.45,6.723 11.391,12.187c-0.051,4.68 -6.515,8.844 -14.859,13.266c0.703,-26.906 1.371,-52.984 1.734,-65.766c-1.558,-0.047 -3.172,-0.07 -4.828,-0.047c-3.387,0.051 -6.918,0.27 -10.359,0.704c0.007,3.183 0.164,11.285 0.375,21.562c-13.434,-3.68 -23.911,-7.82 -19.875,-17.906c5.843,-14.606 42.32,-12.832 51.328,-10.547c9.008,2.285 32.004,1.852 26.25,-4.547c-0.5,-0.914 -10.559,-6.848 -15.563,-8.906c-1.875,-0.77 -3.906,-0.988 -6.047,-0.891c-3.566,0.16 -7.324,1.117 -10.453,1.547c-1.234,0.168 -5.398,0.055 -11.015,0.094c-0.637,-16.84 2.468,-32.309 0.75,-34.547c-2.067,-2.691 0.238,-6.27 -5.766,-5.813c-5.066,0.387 -17.434,-8.062 -20.344,-8.062Zm19.172,287.625c-0.848,0.344 -1.723,0.668 -2.625,0.937c0.524,11.481 -0.59,33.622 -0.234,33.704c2.293,-3.403 2.351,-22.52 2.859,-34.641Z" style="fill:#004d98;fill-rule:nonzero;"/><path d="M278.972,230.918c5.058,6.157 8.098,14.051 8.098,22.653c0,19.651 -15.868,35.605 -35.412,35.605c-19.544,0 -35.412,-15.954 -35.412,-35.605c0,-19.652 15.868,-35.606 35.412,-35.606c9.584,0 18.284,3.836 24.662,10.064l-6.699,7.28c-17.383,-7.59 -38.027,-3.711 -52.07,11.55l4.855,5.278c11.313,-12.207 27.555,-15.922 41.824,-10.973l-5.617,6.106c-10.929,-2.473 -22.769,0.91 -31.273,10.23l4.859,5.281c5.543,-6.023 12.906,-8.992 20.266,-8.746l-8.348,9.074c-2.582,1.075 -4.933,2.723 -7.058,5.032l1.214,1.32l-8.808,9.406l2.66,2.887l46.847,-50.836Zm-29.921,38.379c4.328,-0.906 9.031,0.496 12.371,4.125l4.859,-5.281c-2.961,-3.215 -6.679,-5.278 -10.476,-6.106l-6.754,7.262Zm-2.278,9.406l4.86,5.277l4.855,-5.277c-2.656,-2.973 -7.058,-2.973 -9.715,0Zm29.985,-39.515l-5.012,5.441c3.266,1.98 6.379,4.457 9.184,7.508l4.859,-5.278c-2.809,-2.972 -5.844,-5.527 -9.031,-7.671Zm-15.41,16.746c3.566,1.484 6.906,3.711 9.793,6.847l4.855,-5.281c-2.808,-3.051 -5.996,-5.527 -9.41,-7.262l-5.238,5.696Z" style="fill:#008bb7;"/></g></svg>